HIERARCHY
ROOT newVegas:Hips
{
	OFFSET 0.000000 96.479958 0.000000
	CHANNELS 6 Xposition Yposition Zposition Xrotation Yrotation Zrotation
	JOINT newVegas:Pelvis
	{
		OFFSET 0.000000 0.000000 0.000000
		CHANNELS 3 Xrotation Yrotation Zrotation
		JOINT newVegas:LeftUpLeg
		{
			OFFSET 18.735201 -5.666702 -4.541200
			CHANNELS 3 Xrotation Yrotation Zrotation
			JOINT newVegas:LeftLeg
			{
				OFFSET -0.021200 -31.938179 0.493100
				CHANNELS 3 Xrotation Yrotation Zrotation
				JOINT newVegas:LeftFoot
				{
					OFFSET 0.021200 -31.938179 -4.336299
					CHANNELS 3 Xrotation Yrotation Zrotation
					JOINT newVegas:LeftToeBase
					{
						OFFSET 0.943001 -26.722000 15.023500
						CHANNELS 3 Xrotation Yrotation Zrotation
						End Site
						{
							OFFSET 0.000000 30.670183 0.000000
						}
					}
				}
				JOINT newVegas:Left_PantLeg
				{
					OFFSET 0.663870 -9.044666 -1.108900
					CHANNELS 3 Xrotation Yrotation Zrotation
					End Site
					{
						OFFSET 1.415995 20.635357 0.000000
					}
				}
			}
		}
		JOINT newVegas:RightUpLeg
		{
			OFFSET -18.735201 -5.666702 -4.541200
			CHANNELS 3 Xrotation Yrotation Zrotation
			JOINT newVegas:RightLeg
			{
				OFFSET 0.018946 -31.938133 0.493100
				CHANNELS 3 Xrotation Yrotation Zrotation
				JOINT newVegas:RightFoot
				{
					OFFSET -0.018946 -31.938126 -4.336299
					CHANNELS 3 Xrotation Yrotation Zrotation
					JOINT newVegas:RightToeBase
					{
						OFFSET -0.943001 -26.722004 15.023500
						CHANNELS 3 Xrotation Yrotation Zrotation
						End Site
						{
							OFFSET 0.000000 30.670187 0.000000
						}
					}
				}
				JOINT newVegas:Right_PantLeg
				{
					OFFSET -0.661674 -9.044716 -1.108900
					CHANNELS 3 Xrotation Yrotation Zrotation
					End Site
					{
						OFFSET -1.415958 20.635269 0.000000
					}
				}
			}
		}
	}
	JOINT newVegas:Spine
	{
		OFFSET 0.000000 10.199997 -0.299500
		CHANNELS 3 Xrotation Yrotation Zrotation
		JOINT newVegas:Spine1
		{
			OFFSET 0.000000 11.900002 -1.516600
			CHANNELS 3 Xrotation Yrotation Zrotation
			JOINT newVegas:Spine2
			{
				OFFSET 0.000000 13.600006 -2.842500
				CHANNELS 3 Xrotation Yrotation Zrotation
				JOINT newVegas:Neck
				{
					OFFSET 0.000000 9.624100 -2.890100
					CHANNELS 3 Xrotation Yrotation Zrotation
					JOINT newVegas:Head
					{
						OFFSET 0.000000 14.068802 -1.351900
						CHANNELS 3 Xrotation Yrotation Zrotation
						JOINT newVegas:Hair_Back
						{
							OFFSET 0.000000 3.231903 -17.524799
							CHANNELS 3 Xrotation Yrotation Zrotation
							End Site
							{
								OFFSET 0.000000 19.849884 0.000000
							}
						}
						JOINT newVegas:Hair_Front
						{
							OFFSET 0.000000 31.260406 4.573800
							CHANNELS 3 Xrotation Yrotation Zrotation
							JOINT newVegas:Hair_Front1
							{
								OFFSET 0.000000 2.284103 11.993300
								CHANNELS 3 Xrotation Yrotation Zrotation
								JOINT newVegas:Hair_Front2
								{
									OFFSET 0.000000 2.284103 11.993300
									CHANNELS 3 Xrotation Yrotation Zrotation
									End Site
									{
										OFFSET 0.000000 12.208862 0.000000
									}
								}
							}
						}
						JOINT newVegas:Jowel
						{
							OFFSET 0.000000 -7.458206 6.864100
							CHANNELS 3 Xrotation Yrotation Zrotation
							End Site
							{
								OFFSET 0.000000 19.849884 0.000000
							}
						}
					}
				}
				JOINT newVegas:LeftShoulder
				{
					OFFSET 15.263000 10.923401 -0.547700
					CHANNELS 3 Xrotation Yrotation Zrotation
					JOINT newVegas:LeftArm
					{
						OFFSET 25.438599 -2.830597 -13.032500
						CHANNELS 3 Xrotation Yrotation Zrotation
						JOINT newVegas:LeftForeArm
						{
							OFFSET 29.960503 0.000000 0.000000
							CHANNELS 3 Xrotation Yrotation Zrotation
							JOINT newVegas:LeftHand
							{
								OFFSET 27.849251 0.000000 0.000000
								CHANNELS 3 Xrotation Yrotation Zrotation
								JOINT newVegas:LeftHandThumb1
								{
									OFFSET 4.487587 -3.305161 6.305391
									CHANNELS 3 Xrotation Yrotation Zrotation
									JOINT newVegas:LeftHandThumb2
									{
										OFFSET 5.480453 -3.164139 3.164143
										CHANNELS 3 Xrotation Yrotation Zrotation
										JOINT newVegas:LeftHandThumb3
										{
											OFFSET 5.159721 -2.978973 2.978967
											CHANNELS 3 Xrotation Yrotation Zrotation
											End Site
											{
												OFFSET 2.494507 5.926697 1.738678
											}
										}
									}
								}
								JOINT newVegas:LeftHandIndex1
								{
									OFFSET 18.578728 -0.527832 5.208049
									CHANNELS 3 Xrotation Yrotation Zrotation
									JOINT newVegas:LeftHandIndex2
									{
										OFFSET 3.192009 0.000000 0.000000
										CHANNELS 3 Xrotation Yrotation Zrotation
										JOINT newVegas:LeftHandIndex3
										{
											OFFSET 3.835129 0.000000 0.000000
											CHANNELS 3 Xrotation Yrotation Zrotation
											End Site
											{
												OFFSET -0.034599 3.816971 0.371180
											}
										}
									}
								}
								JOINT newVegas:LeftHandMiddle1
								{
									OFFSET 18.476105 0.000000 0.000000
									CHANNELS 3 Xrotation Yrotation Zrotation
									JOINT newVegas:LeftHandMiddle2
									{
										OFFSET 3.324875 0.000000 0.000000
										CHANNELS 3 Xrotation Yrotation Zrotation
										JOINT newVegas:LeftHandMiddle3
										{
											OFFSET 4.596550 0.000000 0.000000
											CHANNELS 3 Xrotation Yrotation Zrotation
											End Site
											{
												OFFSET 0.057701 4.578827 0.399218
											}
										}
									}
								}
								JOINT newVegas:LeftHandRing1
								{
									OFFSET 17.732719 0.121887 -4.201567
									CHANNELS 3 Xrotation Yrotation Zrotation
									JOINT newVegas:LeftHandRing2
									{
										OFFSET 2.733170 0.000000 0.000000
										CHANNELS 3 Xrotation Yrotation Zrotation
										JOINT newVegas:LeftHandRing3
										{
											OFFSET 3.178268 0.000000 0.000000
											CHANNELS 3 Xrotation Yrotation Zrotation
											End Site
											{
												OFFSET 0.119102 3.170624 0.185394
											}
										}
									}
								}
								JOINT newVegas:LeftHandPinky1
								{
									OFFSET 15.989624 -0.606689 -7.535461
									CHANNELS 3 Xrotation Yrotation Zrotation
									JOINT newVegas:LeftHandPinky2
									{
										OFFSET 2.538986 0.000000 0.000000
										CHANNELS 3 Xrotation Yrotation Zrotation
										JOINT newVegas:LeftHandPinky3
										{
											OFFSET 2.593102 0.000000 0.000000
											CHANNELS 3 Xrotation Yrotation Zrotation
											End Site
											{
												OFFSET -0.150902 2.584198 0.152708
											}
										}
									}
								}
							}
							JOINT newVegas:Left_Sleeve
							{
								OFFSET 0.267448 -0.649796 0.577675
								CHANNELS 3 Xrotation Yrotation Zrotation
								End Site
								{
									OFFSET 0.000000 15.991241 0.000000
								}
							}
							JOINT newVegas:Left_CapeC
							{
								OFFSET 15.715958 -8.608795 -6.935905
								CHANNELS 3 Xrotation Yrotation Zrotation
								JOINT newVegas:Left_CapeC1
								{
									OFFSET 0.000000 -8.688499 0.000000
									CHANNELS 3 Xrotation Yrotation Zrotation
									End Site
									{
										OFFSET 0.000000 8.688499 0.000000
									}
								}
							}
						}
						JOINT newVegas:Left_CapeB
						{
							OFFSET 26.118385 -8.608795 -7.079235
							CHANNELS 3 Xrotation Yrotation Zrotation
							JOINT newVegas:Left_CapeB1
							{
								OFFSET 0.000000 -8.688499 0.000000
								CHANNELS 3 Xrotation Yrotation Zrotation
								End Site
								{
									OFFSET 0.000000 8.688499 0.000000
								}
							}
						}
						JOINT newVegas:Left_CapeA
						{
							OFFSET 5.115639 -8.608795 -10.395809
							CHANNELS 3 Xrotation Yrotation Zrotation
							JOINT newVegas:Left_CapeA1
							{
								OFFSET 0.000000 -8.688499 0.000000
								CHANNELS 3 Xrotation Yrotation Zrotation
								End Site
								{
									OFFSET 0.000000 8.688499 0.000000
								}
							}
						}
					}
				}
				JOINT newVegas:RightShoulder
				{
					OFFSET -15.263000 10.923401 -0.547700
					CHANNELS 3 Xrotation Yrotation Zrotation
					JOINT newVegas:RightArm
					{
						OFFSET -25.438599 -2.830597 -13.032500
						CHANNELS 3 Xrotation Yrotation Zrotation
						JOINT newVegas:RightForeArm
						{
							OFFSET -29.960503 0.000000 0.000000
							CHANNELS 3 Xrotation Yrotation Zrotation
							JOINT newVegas:RightHand
							{
								OFFSET -27.849251 0.000000 0.000000
								CHANNELS 3 Xrotation Yrotation Zrotation
								JOINT newVegas:RightHandThumb1
								{
									OFFSET -4.487587 -3.305161 6.305391
									CHANNELS 3 Xrotation Yrotation Zrotation
									JOINT newVegas:RightHandThumb2
									{
										OFFSET -5.480453 -3.164139 3.164143
										CHANNELS 3 Xrotation Yrotation Zrotation
										JOINT newVegas:RightHandThumb3
										{
											OFFSET -5.159721 -2.978973 2.978967
											CHANNELS 3 Xrotation Yrotation Zrotation
											End Site
											{
												OFFSET -2.494507 5.926697 1.738678
											}
										}
									}
								}
								JOINT newVegas:RightHandIndex1
								{
									OFFSET -18.578728 -0.527832 5.208049
									CHANNELS 3 Xrotation Yrotation Zrotation
									JOINT newVegas:RightHandIndex2
									{
										OFFSET -3.192009 0.000000 0.000000
										CHANNELS 3 Xrotation Yrotation Zrotation
										JOINT newVegas:RightHandIndex3
										{
											OFFSET -3.835129 0.000000 0.000000
											CHANNELS 3 Xrotation Yrotation Zrotation
											End Site
											{
												OFFSET 0.034599 3.816971 0.371180
											}
										}
									}
								}
								JOINT newVegas:RightHandMiddle1
								{
									OFFSET -18.476105 0.000000 0.000000
									CHANNELS 3 Xrotation Yrotation Zrotation
									JOINT newVegas:RightHandMiddle2
									{
										OFFSET -3.324875 0.000000 0.000000
										CHANNELS 3 Xrotation Yrotation Zrotation
										JOINT newVegas:RightHandMiddle3
										{
											OFFSET -4.596550 0.000000 0.000000
											CHANNELS 3 Xrotation Yrotation Zrotation
											End Site
											{
												OFFSET -0.057701 4.578827 0.399218
											}
										}
									}
								}
								JOINT newVegas:RightHandRing1
								{
									OFFSET -17.732719 0.121887 -4.201567
									CHANNELS 3 Xrotation Yrotation Zrotation
									JOINT newVegas:RightHandRing2
									{
										OFFSET -2.733170 0.000000 0.000000
										CHANNELS 3 Xrotation Yrotation Zrotation
										JOINT newVegas:RightHandRing3
										{
											OFFSET -3.178268 0.000000 0.000000
											CHANNELS 3 Xrotation Yrotation Zrotation
											End Site
											{
												OFFSET -0.119102 3.170624 0.185394
											}
										}
									}
								}
								JOINT newVegas:RightHandPinky1
								{
									OFFSET -15.989624 -0.606689 -7.535461
									CHANNELS 3 Xrotation Yrotation Zrotation
									JOINT newVegas:RightHandPinky2
									{
										OFFSET -2.538986 0.000000 0.000000
										CHANNELS 3 Xrotation Yrotation Zrotation
										JOINT newVegas:RightHandPinky3
										{
											OFFSET -2.593102 0.000000 0.000000
											CHANNELS 3 Xrotation Yrotation Zrotation
											End Site
											{
												OFFSET 0.150902 2.584198 0.152708
											}
										}
									}
								}
							}
							JOINT newVegas:Right_CapeC
							{
								OFFSET -15.715958 -8.608795 -6.935905
								CHANNELS 3 Xrotation Yrotation Zrotation
								JOINT newVegas:Right_CapeC1
								{
									OFFSET 0.000000 -8.688499 0.000000
									CHANNELS 3 Xrotation Yrotation Zrotation
									End Site
									{
										OFFSET 0.000000 8.688499 0.000000
									}
								}
							}
							JOINT newVegas:Right_Sleeve
							{
								OFFSET -0.267448 -0.649994 0.577675
								CHANNELS 3 Xrotation Yrotation Zrotation
								End Site
								{
									OFFSET 0.000000 15.991302 0.000000
								}
							}
						}
						JOINT newVegas:Right_CapeA
						{
							OFFSET -5.115540 -8.608795 -10.395824
							CHANNELS 3 Xrotation Yrotation Zrotation
							JOINT newVegas:Right_CapeA1
							{
								OFFSET 0.000000 -8.688499 0.000000
								CHANNELS 3 Xrotation Yrotation Zrotation
								End Site
								{
									OFFSET 0.000000 8.688499 0.000000
								}
							}
						}
						JOINT newVegas:Right_CapeB
						{
							OFFSET -26.118187 -8.608795 -7.079266
							CHANNELS 3 Xrotation Yrotation Zrotation
							JOINT newVegas:Right_CapeB1
							{
								OFFSET 0.000000 -8.688499 0.000000
								CHANNELS 3 Xrotation Yrotation Zrotation
								End Site
								{
									OFFSET 0.000000 8.688499 0.000000
								}
							}
						}
					}
				}
				JOINT newVegas:Left_Collar
				{
					OFFSET 18.625099 8.655502 8.828100
					CHANNELS 3 Xrotation Yrotation Zrotation
					JOINT newVegas:Left_Collar1
					{
						OFFSET 14.783401 10.540405 -1.259500
						CHANNELS 3 Xrotation Yrotation Zrotation
						End Site
						{
							OFFSET 0.000000 18.199875 0.000000
						}
					}
				}
				JOINT newVegas:Collar_Back
				{
					OFFSET 0.000000 15.630707 -20.132601
					CHANNELS 3 Xrotation Yrotation Zrotation
					End Site
					{
						OFFSET 0.000000 22.523010 0.000000
					}
				}
				JOINT newVegas:Left_Peck
				{
					OFFSET 17.239599 -5.132599 25.482599
					CHANNELS 3 Xrotation Yrotation Zrotation
					End Site
					{
						OFFSET 0.000000 22.523010 0.000000
					}
				}
				JOINT newVegas:Right_Peck
				{
					OFFSET -17.239599 -5.132202 25.482599
					CHANNELS 3 Xrotation Yrotation Zrotation
					End Site
					{
						OFFSET 0.000000 22.523010 0.000000
					}
				}
				JOINT newVegas:Right_Collar
				{
					OFFSET -18.625099 8.655792 8.828100
					CHANNELS 3 Xrotation Yrotation Zrotation
					JOINT newVegas:Right_Collar1
					{
						OFFSET -14.783401 10.539993 -1.259500
						CHANNELS 3 Xrotation Yrotation Zrotation
						End Site
						{
							OFFSET 0.000000 18.199631 0.000000
						}
					}
				}
			}
		}
		JOINT newVegas:Belly
		{
			OFFSET 0.000000 -6.540398 9.014299
			CHANNELS 3 Xrotation Yrotation Zrotation
			End Site
			{
				OFFSET 0.000000 11.566666 0.000000
			}
		}
	}
	JOINT newVegas:ElvisFacialAnim_Joint
	{
		OFFSET 1.000000 -95.330101 -8.825800
		CHANNELS 3 Xrotation Yrotation Zrotation
		End Site
		{
			OFFSET 0.000000 35.315800 0.000000
		}
	}
}
MOTION
Frames: 4
Frame Time: 0.033333
0.068273 85.329735 5.455736 17.429803 -3.297668 0.029094 0.000001 0.000000 -0.000000 -46.303031 -2.457184 23.550981 38.853207 -3.807679 3.035281 -9.686803 -4.126388 -22.905548 0.000000 0.000000 -0.000000 -0.000000 0.000000 0.000001 -44.889373 0.520275 -15.695141 40.898298 -2.997838 -9.096492 -10.002628 -2.526580 24.676505 0.000000 -0.000000 0.000000 -0.000001 -0.000001 0.000000 14.914835 -1.544250 0.445480 5.350116 -0.845701 -1.559632 5.155455 -0.428916 -0.173902 -1.658244 0.214581 0.357916 -1.658261 0.214580 0.357918 0.000000 0.000000 -0.000000 -1.658252 0.214582 0.357915 -1.658229 0.214573 0.357917 0.000001 -0.000000 -0.000000 0.000000 0.000000 0.000000 -18.187315 -16.684381 -4.143480 -14.299585 5.321667 -58.617244 -0.000020 -50.169648 -0.000041 13.748601 -26.697302 34.897014 11.187901 5.997093 -10.405209 5.363077 8.351959 0.904208 0.000001 0.000001 -0.000001 0.153507 -1.751679 -23.178213 0.809101 2.972604 -30.446521 -0.000002 0.000004 -0.000001 0.494830 4.564857 -22.398022 0.931144 3.170804 -32.723648 -0.000001 0.000000 0.000000 0.700939 5.019815 -28.509044 0.453637 2.262244 -22.674493 -0.000002 0.000003 -0.000001 0.465078 8.292866 -13.856669 0.624487 2.633808 -26.673000 0.000002 -0.000003 -0.000003 -0.000000 -0.000003 -0.000000 -0.000000 -0.000003 -0.000000 -0.000001 -0.000003 0.000000 -0.000000 0.000000 -0.000001 -0.000000 -0.000000 -0.000003 -0.000000 0.000000 -0.000001 0.000000 0.000000 -0.000001 -23.769975 22.742595 4.874677 -0.233458 -15.047909 62.639644 0.000001 53.262747 0.000017 -1.218887 18.916615 -19.344615 -1.242392 9.919744 5.830494 6.896084 -18.922477 -2.478584 0.000001 -0.000000 -0.000001 0.710429 3.726563 13.785586 0.253607 -1.517386 18.976128 -0.000001 -0.000001 0.000001 0.186690 -3.410234 14.033901 0.448857 -1.996608 25.337241 0.000001 0.000000 -0.000001 2.581811 -11.039333 17.202969 1.378477 -3.309263 45.218660 -0.000003 0.000001 -0.000000 2.628718 -23.279791 23.282173 0.574909 -2.243388 28.743803 0.000001 0.000001 0.000002 0.000000 -0.000004 0.000002 -0.000001 0.000001 0.000001 0.000000 -0.000004 0.000002 -0.000001 0.000001 -0.000001 -0.000001 0.000001 0.000001 -0.000001 0.000001 -0.000001 -0.000001 0.000001 0.000001 0.000001 -0.000000 -0.000000 0.000001 -0.000000 -0.000000 0.000001 -0.000000 -0.000000 0.000001 -0.000000 -0.000000 0.000001 -0.000000 -0.000000 0.000001 -0.000000 -0.000000 0.000001 -0.000000 -0.000000 0.000003 -0.000000 0.000000 0.000001 0.000000 -0.000000 
-0.274152 82.852310 6.255049 16.555062 -4.055556 0.978744 0.000001 -0.000000 0.000000 -48.167406 -3.759998 24.038144 47.674782 -4.340521 2.863998 -15.029582 -2.825641 -23.517309 0.000000 0.000000 -0.000000 -0.000000 0.000001 0.000003 -48.863033 2.843746 -16.723378 51.611921 -1.689197 -8.776773 -15.589541 -3.786205 24.790018 0.000000 0.000000 0.000000 0.000004 -0.000001 -0.000003 15.454063 -0.321139 1.630080 5.185825 -0.597157 -1.370291 4.999540 -0.202211 -0.051854 -1.607408 0.205177 0.267258 -1.607405 0.205176 0.267259 -0.000000 -0.000000 0.000000 -1.607408 0.205184 0.267256 -1.607473 0.205178 0.267258 0.000001 0.000000 0.000000 -0.000000 -0.000000 -0.000000 -16.980306 -16.362948 -3.570774 -18.602710 5.838706 -57.329971 -0.000004 -52.464155 -0.000005 10.888524 -25.914238 33.450080 10.851964 5.666068 -9.668054 5.462200 8.601119 1.051482 0.000001 -0.000003 -0.000005 0.160049 -1.816963 -22.123075 0.810153 2.974367 -30.466530 -0.000002 0.000001 0.000001 0.411780 4.359874 -22.022348 0.913077 3.142548 -32.395464 -0.000000 -0.000002 0.000004 0.719485 5.052444 -28.117128 0.455401 2.266451 -22.719004 -0.000001 0.000001 0.000003 0.495755 8.688930 -14.268082 0.622253 2.629373 -26.624298 -0.000002 -0.000003 -0.000001 -0.000001 0.000001 -0.000000 -0.000001 0.000001 -0.000000 -0.000002 0.000002 0.000000 -0.000001 -0.000001 -0.000003 -0.000000 -0.000001 -0.000003 -0.000001 -0.000001 -0.000003 -0.000000 -0.000002 -0.000003 -21.850250 19.001178 5.302380 -9.891149 -11.107751 58.987515 0.000018 47.068568 -0.000029 2.574603 22.326847 -22.676163 -6.643798 8.153690 5.152086 6.940968 -18.750012 -2.572882 -0.000004 -0.000004 -0.000001 1.093661 3.591196 13.504626 0.113399 -1.022523 12.656160 -0.000001 0.000000 -0.000001 0.085363 -2.900535 9.948113 0.349776 -1.772443 22.325281 -0.000002 -0.000000 0.000001 1.750616 -10.511356 12.150017 1.045358 -2.941991 39.115138 -0.000001 0.000001 0.000001 -1.560308 -22.540592 16.725320 0.312479 -1.678778 21.086635 -0.000000 0.000003 -0.000002 -0.000001 0.000000 0.000001 -0.000000 -0.000000 -0.000000 -0.000001 0.000000 -0.000000 0.000000 0.000001 0.000002 0.000000 0.000001 0.000002 0.000000 0.000001 0.000002 0.000000 0.000001 0.000002 -0.000002 -0.000000 0.000000 -0.000002 -0.000000 0.000000 -0.000002 -0.000000 0.000000 -0.000002 -0.000000 0.000000 -0.000002 -0.000000 0.000000 -0.000002 -0.000000 0.000000 -0.000002 -0.000000 0.000000 -0.000001 -0.000000 0.000000 0.000001 -0.000000 0.000000 
-0.752409 79.932640 7.197666 16.512349 -6.610362 3.075113 0.000001 -0.000001 -0.000000 -48.704228 -4.465911 24.315041 55.933830 -2.952169 2.724067 -21.190512 -1.090282 -24.991222 0.000000 0.000000 -0.000000 0.000000 0.000000 0.000000 -54.721836 6.082862 -17.692364 62.366956 1.549500 -8.590252 -20.658607 -4.766113 23.938486 0.000000 -0.000001 0.000000 -0.000000 0.000001 -0.000001 14.689077 2.214438 2.641440 4.526492 0.062658 -0.982255 4.366339 0.398087 0.158338 -1.285668 0.194474 0.191936 -1.285648 0.194473 0.191938 0.000000 0.000000 0.000000 -1.285606 0.194473 0.191934 -1.285655 0.194470 0.191939 -0.000000 -0.000000 0.000000 0.000000 0.000000 0.000000 -14.209572 -16.166477 -3.437671 -25.105844 6.659686 -50.406096 -0.000019 -55.187133 -0.000006 7.583831 -25.525298 31.720724 9.992817 4.797865 -7.752564 5.721051 9.253213 1.432214 0.000002 -0.000002 -0.000003 0.178726 -1.984084 -19.369185 0.812880 2.978990 -30.518750 0.000002 -0.000001 0.000002 0.207277 3.820981 -21.043364 0.866668 3.068314 -31.539068 0.000001 0.000000 -0.000003 0.764505 5.138989 -27.093947 0.460002 2.277414 -22.835090 0.000003 -0.000001 0.000001 0.602273 9.718709 -15.348125 0.616434 2.617749 -26.497198 0.000002 -0.000005 -0.000004 -0.000000 0.000001 -0.000000 -0.000000 0.000001 -0.000000 -0.000001 0.000001 -0.000001 -0.000002 0.000000 -0.000000 -0.000001 0.000000 -0.000000 -0.000002 0.000000 -0.000000 -0.000001 -0.000001 -0.000001 -17.789887 16.078853 6.552682 -22.402577 -1.841593 50.717518 0.000020 35.996282 -0.000029 9.960298 24.998470 -31.637204 -12.422214 6.258493 3.583249 7.057670 -18.300952 -2.820480 -0.000002 0.000001 -0.000000 1.502796 3.375872 12.238997 0.030006 -0.528435 6.501234 -0.000000 -0.000002 -0.000001 0.006373 -2.059029 5.405511 0.254974 -1.521363 19.027707 0.000001 0.000003 -0.000001 0.884267 -9.342198 6.778433 0.656540 -2.386086 30.764596 -0.000001 0.000002 -0.000001 -6.067718 -20.293301 9.765625 0.108178 -0.999008 12.360406 0.000000 -0.000002 -0.000002 -0.000002 0.000000 0.000000 -0.000002 -0.000003 -0.000000 -0.000002 -0.000000 -0.000002 0.000000 -0.000001 -0.000001 0.000001 -0.000001 -0.000002 0.000000 -0.000001 -0.000001 0.000001 -0.000001 -0.000002 0.000004 0.000000 -0.000000 0.000004 0.000000 -0.000000 0.000004 0.000000 -0.000000 0.000004 0.000000 -0.000000 0.000004 0.000000 -0.000000 0.000004 0.000000 -0.000000 0.000004 0.000000 -0.000000 -0.000002 -0.000000 -0.000000 0.000001 -0.000001 -0.000000 
-1.238312 78.460205 8.159609 18.259158 -10.156394 6.968619 0.000001 0.000000 0.000000 -46.531521 -2.690750 22.711976 57.480017 1.325242 2.660179 -24.733225 0.167056 -27.093952 0.000000 -0.000000 0.000000 -0.000000 -0.000000 0.000001 -60.892858 9.659075 -18.705340 68.189597 5.818937 -8.607688 -22.633288 -4.858939 22.259033 -0.000000 0.000001 -0.000000 0.000000 -0.000000 -0.000000 13.247098 5.702990 3.646991 3.560258 0.995999 -0.616875 3.439527 1.254588 0.277621 -0.812013 0.122132 0.100830 -0.812014 0.122132 0.100828 -0.000000 -0.000000 -0.000000 -0.812016 0.122126 0.100834 -0.811999 0.122158 0.100827 0.000001 0.000001 0.000000 -0.000000 -0.000000 -0.000000 -10.115780 -14.638398 -2.026149 -32.406956 7.574600 -39.340407 0.000023 -57.194061 0.000015 6.632818 -24.317213 27.248439 8.837387 3.580421 -5.104121 6.082169 10.165861 1.953671 0.000001 -0.000000 -0.000003 0.207896 -2.209370 -15.533882 0.816650 2.985390 -30.591444 -0.000000 -0.000001 -0.000001 -0.048077 3.061709 -19.683248 0.803933 2.963798 -30.346694 -0.000004 -0.000001 -0.000002 0.818931 5.262773 -25.668339 0.466445 2.292647 -22.996748 -0.000003 -0.000001 0.000001 0.814587 11.141633 -16.869116 0.608379 2.601539 -26.320216 0.000001 -0.000003 0.000001 -0.000000 -0.000001 -0.000002 -0.000000 -0.000001 -0.000002 -0.000001 -0.000001 -0.000002 0.000000 0.000001 -0.000002 0.000001 0.000001 -0.000001 0.000000 0.000001 -0.000002 0.000000 0.000002 -0.000002 -12.530878 14.587923 7.358097 -31.625593 10.066670 42.738054 -0.000003 25.454168 0.000011 13.010681 26.928828 -36.981298 -16.769166 4.887403 1.466425 7.219212 -17.678051 -3.168839 -0.000001 -0.000006 -0.000001 1.795621 3.124454 10.243281 0.004366 -0.201851 2.478567 -0.000000 0.000001 -0.000001 0.010952 -1.116017 1.771034 0.190882 -1.320987 16.443602 -0.000001 0.000001 0.000000 0.332114 -7.882547 2.750585 0.354380 -1.783580 22.473423 0.000001 0.000002 0.000000 -9.418248 -17.309494 4.637660 0.018904 -0.419793 5.160334 0.000001 0.000003 0.000001 -0.000001 0.000005 0.000000 -0.000001 0.000001 -0.000001 -0.000001 0.000004 0.000000 0.000000 0.000000 -0.000002 0.000000 0.000001 -0.000002 0.000000 0.000000 -0.000002 0.000000 -0.000000 -0.000002 0.000002 -0.000000 -0.000000 0.000002 -0.000000 -0.000000 0.000002 -0.000000 -0.000000 0.000002 -0.000000 -0.000000 0.000002 -0.000000 -0.000000 0.000002 -0.000000 -0.000000 0.000002 -0.000000 -0.000000 0.000000 0.000000 0.000001 0.000001 0.000000 0.000000 
